<svg xmlns="http://www.w3.org/2000/svg" width="27" height="20" viewBox="0 0 27 20"><g><g><g><path fill="#4e82fe" d="M0 6h12l3 5H3z"/></g><g transform="rotate(6 13 7)"><path fill="#fff" d="M6.529 13.544S5.51 1.66 6.8 1.386c1.291-.274 3.126 3.582 3.542 3.915.415.332 4.233-.182 4.638-.7.406-.517 1.557-4.663 2.56-4.344 1.005.32 3.69 10.667 3.69 12.228 0 1.562-14.702 1.059-14.702 1.059z"/></g><g><path fill="#4e82fe" d="M3 11h21v6a3 3 0 0 1-3 3H6a3 3 0 0 1-3-3z"/></g><g><path fill="#4e82fe" d="M27 6H16l-3 5h11z"/></g></g></g></svg>