<svg class="icon" style="width: 1em; height: 1em;vertical-align: middle;fill: #999;overflow: hidden;" viewBox="0 0 1024 1024" version="1.1" xmlns="http://www.w3.org/2000/svg"><path d="M65.32 301.784c0-10.825 4.519-21.379 12.398-28.954 7.788-7.485 18.015-11.501 28.79-11.309 10.763 0.193 20.794 4.568 28.244 12.323l379.844 394.198 374.417-395.805c15.316-16.155 40.906-16.873 57.028-1.587 8.15 7.726 12.64 18.159 12.64 29.371 0 10.339-3.921 20.165-11.037 27.671L544.537 753.875c-11.628 12.326-30.119 15.508-46.127 7.99a28.623 28.623 0 0 0-2.95-1.835 118.3 118.3 0 0 0-3.288-1.78c-1.556-0.821-3.04-1.604-3.897-2.249a31.153 31.153 0 0 0-1.68-1.908 21.733 21.733 0 0 0-4.229-3.532L76.682 329.702c-7.347-7.554-11.362-17.45-11.362-27.918z" /></svg>